#!OML:ASF X:\für Bonn\!DataBase\2005_08_12_Daniel\c3d\Daniel.ASF
:FULLY-SPECIFIED
:DEGREES
92
root -2.92498 6.09939 -2.87327 319.655 -84.0768 -353.081
lowerback 56.486 -4.58267 2.76787
upperback 5.59633 -6.10151 -2.78915
thorax -15.6208 -3.32286 -1.14462
lowerneck 5.2385 2.08417 -1.64482
upperneck -3.05837 2.66702 0.0742277
head -1.86898 1.34792 0.216898
rclavicle -4.1049e-014 1.11319e-014
rhumerus 66.2301 3.55008 -86.3068
rradius 13.3637
rwrist 50.3023
rhand -17.9783 14.7604
rfingers 7.12502
rthumb 8.29131 -15.0569
lclavicle -4.1049e-014 1.11319e-014
lhumerus 69.1061 0.5699 91.687
lradius 10.2715
lwrist -61.9212
lhand -17.2549 1.0624
lfingers 7.12502
lthumb 8.98937 30.8509
rfemur 162.879 44.7443 28.1262
rtibia 201.607
rfoot -139.967 99.7535
rtoes 2.64384
lfemur -44.7313 72.2398 60.7514
ltibia 155.715
lfoot 10.0827 -74.7862
ltoes 10.0995
93
root -2.91719 6.15042 -2.87168 319.766 -84.0475 -353.068
lowerback 56.4863 -4.60702 2.76477
upperback 5.54067 -6.1266 -2.79933
thorax -15.6908 -3.32853 -1.14003
lowerneck 5.16893 2.09431 -1.83729
upperneck -3.05259 2.67502 0.224301
head -1.86046 1.35064 0.297031
rclavicle -1.87852e-014 -2.66371e-014
rhumerus 66.245 3.38576 -86.7643
rradius 13.1527
rwrist 51.1444
rhand -18.1392 14.8153
rfingers 7.12502
rthumb 8.13602 -15.008
lclavicle -1.87852e-014 -2.66371e-014
lhumerus 69.1226 0.412987 91.275
lradius 10.0353
lwrist -61.1431
lhand -17.1389 1.06118
lfingers 7.12502
lthumb 9.10127 30.8448
rfemur 161.987 44.759 28.4343
rtibia 201.948
rfoot -136.208 99.4204
rtoes 2.79403
lfemur -44.9531 71.918 59.5736
ltibia 155.352
lfoot 9.01815 -74.442
ltoes 10.2809
94
root -2.90804 6.22098 -2.86955 319.968 -84.0202 -353.12
lowerback 56.4901 -4.6327 2.76256
upperback 5.4694 -6.14784 -2.79462
thorax -15.7778 -3.33176 -1.12033
lowerneck 5.11786 2.09357 -1.9971
upperneck -3.07668 2.66724 0.299316
head -1.86309 1.34709 0.348306
rclavicle 3.926e-014 7.55382e-015
rhumerus 66.2398 3.18955 -87.3415
rradius 12.9178
rwrist 52.1677
rhand -18.3706 14.8789
rfingers 7.12502
rthumb 7.91262 -14.953
lclavicle 3.926e-014 7.55382e-015
lhumerus 69.1652 0.414192 91.2732
lradius 9.83378
lwrist -61.0157
lhand -16.845 1.0549
lfingers 7.12502
lthumb 9.38492 30.826
rfemur 160.92 44.8472 28.9825
rtibia 202.429
rfoot -131.283 98.9524
rtoes 2.93461
lfemur -45.4637 71.4201 57.8106
ltibia 154.848
lfoot 7.78494 -73.933
ltoes 10.4212
95
root -2.89814 6.3048 -2.86827 320.003 -83.9914 -352.979
lowerback 56.4481 -4.64983 2.74081
upperback 5.40591 -6.17483 -2.80927
thorax -15.8541 -3.33626 -1.11203
lowerneck 5.07123 2.10117 -2.18607
upperneck -3.06882 2.67175 0.444367
head -1.85809 1.34818 0.426277
rclavicle 3.00165e-014 -2.62396e-014
rhumerus 66.2119 2.98017 -87.9814
rradius 12.6741
rwrist 53.1648
rhand -18.6041 14.9266
rfingers 7.12502
rthumb 7.68733 -14.9137
lclavicle 3.00165e-014 -2.62396e-014
lhumerus 69.1919 0.41365 91.2397
lradius 9.71431
lwrist -61.2506
lhand -16.474 1.11528
lfingers 7.12502
lthumb 9.74287 30.8699
rfemur 159.69 45.0037 29.6374
rtibia 203.011
rfoot -125.177 98.5499
rtoes 3.04653
lfemur -46.1562 70.7895 55.6223
ltibia 154.246
lfoot 6.25779 -73.299
ltoes 10.5719
96
root -2.89018 6.35153 -2.86639 320.202 -83.9626 -352.98
lowerback 56.3697 -4.66012 2.72775
upperback 5.34537 -6.18405 -2.80595
thorax -15.9207 -3.33369 -1.09723
lowerneck 5.04596 2.09564 -2.37277
upperneck -3.08512 2.65678 0.551478
head -1.8639 1.34056 0.492369
rclavicle 6.55989e-015 -9.54166e-015
rhumerus 66.1708 2.79453 -88.5411
rradius 12.4545
rwrist 53.8989
rhand -18.8035 14.9381
rfingers 7.12502
rthumb 7.4948 -14.9091
lclavicle 6.55989e-015 -9.54166e-015
lhumerus 69.2262 0.383695 91.2394
lradius 9.65833
lwrist -61.7288
lhand -16.1085 1.19756
lfingers 7.12502
lthumb 10.0954 30.9354
rfemur 159.283 45.5641 30.669
rtibia 203.349
rfoot -121.163 97.6404
rtoes 3.28807
lfemur -48.7604 69.8854 52.0557
ltibia 153.917
lfoot 6.55292 -72.422
ltoes 10.7517
97
root -2.8782 6.46278 -2.86537 320.324 -83.9356 -352.901
lowerback 56.301 -4.65796 2.68636
upperback 5.25981 -6.19125 -2.79279
thorax -16.0158 -3.32773 -1.05858
lowerneck 5.01922 2.10146 -2.53796
upperneck -3.07518 2.65763 0.637123
head -1.86042 1.34093 0.547719
rclavicle -7.77248e-014 -1.74931e-014
rhumerus 66.0662 2.65182 -89.0088
rradius 12.3208
rwrist 54.4062
rhand -18.7626 14.987
rfingers 7.12502
rthumb 7.53434 -14.8588
lclavicle -7.77248e-014 -1.74931e-014
lhumerus 69.2086 0.398589 91.2334
lradius 9.70005
lwrist -62.4452
lhand -15.8939 1.28782
lfingers 7.12502
lthumb 10.3025 31.0155
rfemur 157.877 45.9015 31.7202
rtibia 204.158
rfoot -111.849 97.3648
rtoes 3.38676
lfemur -49.5576 68.9544 49.3906
ltibia 153.098
lfoot 5.18795 -71.5941
ltoes 10.9957
98
root -2.86551 6.58395 -2.86448 320.542 -83.9108 -352.886
lowerback 56.1733 -4.66782 2.67278
upperback 5.20671 -6.20409 -2.8084
thorax -16.0721 -3.32628 -1.06434
lowerneck 4.85123 2.08807 -2.63087
upperneck -2.98982 2.64121 0.705092
head -1.8052 1.33205 0.587197
rclavicle -2.76311e-014 5.1684e-015
rhumerus 65.9875 2.54089 -89.3803
rradius 12.2658
rwrist 54.5227
rhand -18.5566 14.9502
rfingers 7.12502
rthumb 7.73311 -14.8884
lclavicle -2.76311e-014 5.1684e-015
lhumerus 69.2587 0.357814 91.1974
lradius 9.76707
lwrist -63.1946
lhand -15.8565 1.41185
lfingers 7.12502
lthumb 10.3386 31.1377
rfemur 23.5421 -46.3795 -147.057
rtibia 154.93
rfoot -102.184 82.9993
rtoes 3.69989
lfemur -50.7219 67.853 46.2833
ltibia 152.213
lfoot 4.10916 -70.6174
ltoes 11.2034
99
root -2.85253 6.71403 -2.86365 320.562 -83.8671 -352.648
lowerback 56.0407 -4.65348 2.60489
upperback 5.12395 -6.21143 -2.79449
thorax -16.1569 -3.31852 -1.01432
lowerneck 4.6777 2.08053 -2.75011
upperneck -2.8819 2.6309 0.764178
head -1.74225 1.32659 0.628191
rclavicle 6.55989e-015 2.34566e-014
rhumerus 65.8395 2.50288 -89.5752
rradius 12.3607
rwrist 54.4196
rhand -18.1677 14.9069
rfingers 7.12502
rthumb 8.10852 -14.9176
lclavicle 6.55989e-015 2.34566e-014
lhumerus 69.2679 0.345367 91.2012
lradius 9.90399
lwrist -63.8582
lhand -15.9722 1.48712
lfingers 7.12502
lthumb 10.227 31.2185
rfemur 24.8562 -46.956 -145.688
rtibia 153.926
rfoot -92.1717 83.4958
rtoes 4.13539
lfemur -51.884 66.5862 43.0304
ltibia 151.242
lfoot 3.35625 -69.572
ltoes 11.5448
100
root -2.83969 6.8518 -2.86302 320.68 -83.8201 -352.518
lowerback 55.8982 -4.6455 2.54665
upperback 5.05674 -6.22376 -2.78902
thorax -16.2236 -3.31405 -0.976319
lowerneck 4.46878 2.06787 -2.82048
upperneck -2.75043 2.61726 0.797417
head -1.66419 1.31939 0.653081
rclavicle -1.98785e-016 -1.03368e-014
rhumerus 65.6637 2.41712 -89.9518
rradius 12.6086
rwrist 54.3497
rhand -17.6114 14.8221
rfingers 7.12502
rthumb 8.64533 -14.9809
lclavicle -1.98785e-016 -1.03368e-014
lhumerus 69.2634 0.325279 91.1873
lradius 10.0969
lwrist -64.3075
lhand -16.2128 1.59157
lfingers 7.12502
lthumb 9.99487 31.3343
rfemur 25.9364 -47.6669 -144.014
rtibia 152.825
rfoot -80.3813 84.1344
rtoes 4.65381
lfemur -53.0056 65.1225 39.7554
ltibia 150.191
lfoot 2.81122 -68.4589
ltoes 11.8565
101
root -2.82552 7.00017 -2.86307 320.779 -83.7679 -352.256
lowerback 55.6749 -4.62265 2.46012
upperback 4.95939 -6.22636 -2.76687
thorax -16.3153 -3.30127 -0.912349
lowerneck 4.25167 2.06027 -2.91819
upperneck -2.58982 2.60945 0.835962
head -1.5763 1.31506 0.684165
rclavicle -1.36167e-014 -1.55052e-014
rhumerus 65.57 2.42833 -90.0299
rradius 12.7878
rwrist 53.8983
rhand -17.1138 14.6962
rfingers 7.12502
rthumb 9.1255 -15.0864
lclavicle -1.36167e-014 -1.55052e-014
lhumerus 69.2588 0.199834 90.8862
lradius 10.2223
lwrist -64.1345
lhand -16.5251 1.70378
lfingers 7.12502
lthumb 9.69358 31.4607
rfemur 26.8441 -48.6857 -142.013
rtibia 151.646
rfoot -62.9874 84.8839
rtoes 5.4294
lfemur -54.5034 63.4597 36.0397
ltibia 149.072
lfoot 2.43143 -67.167
ltoes 12.1108
102
root -2.81055 7.15911 -2.86264 320.913 -83.7295 -351.868
lowerback 55.2669 -4.58265 2.37144
upperback 4.87022 -6.20743 -2.7522
thorax -16.3789 -3.27783 -0.871031
lowerneck 4.06865 2.04127 -2.93544
upperneck -2.4636 2.58878 0.83228
head -1.50331 1.30446 0.68823
rclavicle -6.65929e-015 3.89618e-014
rhumerus 65.5855 2.37101 -90.2341
rradius 12.8239
rwrist 53.6352
rhand -16.7731 14.5444
rfingers 7.12502
rthumb 9.45427 -15.2235
lclavicle -6.65929e-015 3.89618e-014
lhumerus 69.251 -0.105808 90.1757
lradius 10.3539
lwrist -63.182
lhand -16.7899 1.83642
lfingers 7.12502
lthumb 9.43807 31.6051
rfemur 27.5874 -50.0103 -139.702
rtibia 150.426
rfoot -41.9783 84.8841
rtoes 6.04331
lfemur -56.1362 61.6957 32.1483
ltibia 147.879
lfoot 2.30292 -65.7516
ltoes 12.4531
103
root -2.79606 7.32169 -2.86214 320.902 -83.691 -351.339
lowerback 54.855 -4.53511 2.25061
upperback 4.78054 -6.19773 -2.73329
thorax -16.4388 -3.25696 -0.805757
lowerneck 3.93003 2.03568 -3.0015
upperneck -2.35664 2.58266 0.847713
head -1.44605 1.30124 0.705769
rclavicle -3.46879e-014 -4.65156e-014
rhumerus 65.6009 2.40314 -90.2438
rradius 12.8017
rwrist 53.201
rhand -16.7301 14.377
rfingers 7.12502
rthumb 9.49578 -15.389
lclavicle -3.46879e-014 -4.65156e-014
lhumerus 69.2801 -0.427521 89.3688
lradius 10.4511
lwrist -61.8265
lhand -16.9276 1.93878
lfingers 7.12502
lthumb 9.30523 31.7134
rfemur 27.9413 -51.4273 -137.033
rtibia 149.178
rfoot -24.4975 84.2124
rtoes 6.4412
lfemur -57.3765 59.8417 28.6687
ltibia 146.651
lfoot 2.1115 -64.3825
ltoes 12.7388
104
root -2.78542 7.48501 -2.86211 320.289 -83.5773 -350.22
lowerback 54.4006 -4.46404 2.06471
upperback 4.70951 -6.20288 -2.73799
thorax -16.47 -3.23975 -0.73171
lowerneck 3.81725 2.02663 -3.03262
upperneck -2.2547 2.57275 0.852208
head -1.39416 1.29594 0.7138
rclavicle -3.8763e-015 -7.95139e-016
rhumerus 65.5927 2.43214 -90.1107
rradius 12.7947
rwrist 52.6883
rhand -16.8833 14.1853
rfingers 7.12502
rthumb 9.34794 -15.5874
lclavicle -3.8763e-015 -7.95139e-016
lhumerus 69.3124 -0.816498 88.5535
lradius 10.5603
lwrist -60.2367
lhand -16.9182 2.03795
lfingers 7.12502
lthumb 9.3143 31.8122
rfemur 27.8947 -52.8187 -134.26
rtibia 147.953
rfoot -14.7197 83.1292
rtoes 6.46699
lfemur -58.3543 57.8641 25.3745
ltibia 145.393
lfoot 1.98614 -63.0315
ltoes 13.0582
105
root -2.77438 7.65301 -2.86113 320.055 -83.5022 -349.466
lowerback 53.9385 -4.41009 1.91588
upperback 4.62981 -6.20259 -2.73209
thorax -16.5081 -3.22169 -0.664926
lowerneck 3.66749 2.0232 -3.09846
upperneck -2.13187 2.57117 0.895032
head -1.3308 1.29436 0.739829
rclavicle -1.96797e-014 -1.55052e-014
rhumerus 65.5265 2.46151 -90.0305
rradius 12.8408
rwrist 52.3118
rhand -17.2214 13.9791
rfingers 7.12502
rthumb 9.02174 -15.808
lclavicle -1.96797e-014 -1.55052e-014
lhumerus 69.3827 -1.17151 87.8028
lradius 10.6505
lwrist -58.6532
lhand -16.7969 2.1167
lfingers 7.12502
lthumb 9.43136 31.8857
rfemur 27.2929 -54.3747 -130.807
rtibia 146.683
rfoot -6.86707 81.7854
rtoes 6.68468
lfemur -59.107 55.8291 22.4175
ltibia 144.097
lfoot 2.06828 -61.6986
ltoes 13.3904
106
root -2.76518 7.82549 -2.86047 319.88 -83.4397 -348.78
lowerback 53.4576 -4.34638 1.77319
upperback 4.56197 -6.18614 -2.72342
thorax -16.526 -3.19817 -0.606842
lowerneck 3.47361 2.00599 -3.12271
upperneck -1.98101 2.55404 0.910415
head -1.24951 1.285 0.750928
rclavicle 6.34123e-014 -1.11319e-014
rhumerus 65.4346 2.47348 -89.9425
rradius 12.9141
rwrist 52.0534
rhand -17.7245 13.7795
rfingers 7.12502
rthumb 8.53618 -16.0279
lclavicle 6.34123e-014 -1.11319e-014
lhumerus 69.4797 -1.59058 86.8982
lradius 10.7697
lwrist -56.9279
lhand -16.5938 2.21021
lfingers 7.12502
lthumb 9.6273 31.9702
rfemur 26.1302 -55.9167 -126.769
rtibia 145.365
rfoot -1.61183 80.3042
rtoes 6.77183
lfemur -59.5368 53.7774 19.7979
ltibia 142.75
lfoot 1.88954 -60.4516
ltoes 13.6289
